<?xml version="1.0" standalone="no"?><!DOCTYPE svg PUBLIC "-//W3C//DTD SVG 1.1//EN" "http://www.w3.org/Graphics/SVG/1.1/DTD/svg11.dtd"><svg t="1761650902434" class="icon" viewBox="0 0 1024 1024" version="1.1" xmlns="http://www.w3.org/2000/svg" p-id="2520" xmlns:xlink="http://www.w3.org/1999/xlink" width="200" height="200"><path d="M570.715429 273.28c5.138286 0 8.137143-3.419429 8.996571-8.137143 13.293714-71.131429 12.854857-72.850286 87.003429-87.424 5.138286-0.859429 8.137143-3.437714 8.137142-8.576 0-5.577143-2.998857-8.137143-8.137142-8.996571-74.148571-14.994286-73.709714-16.274286-87.003429-87.424-0.859429-4.717714-3.84-8.155429-8.996571-8.155429-5.138286 0-7.716571 3.437714-8.576 8.155429-13.714286 71.131429-12.854857 72.411429-87.424 87.405714-4.717714 0.877714-8.137143 3.437714-8.137143 9.014857 0 5.138286 3.419429 7.716571 8.137143 8.576 75.008 14.573714 73.709714 16.274286 87.424 87.424 0.859429 4.717714 3.437714 8.137143 8.576 8.137143zM776.009143 563.017143c7.698286 0 13.275429-5.577143 14.134857-13.714286 14.134857-114.852571 19.712-118.290286 135.862857-136.283428 9.417143-1.718857 14.994286-5.997714 14.994286-14.573715 0-8.137143-5.577143-13.293714-13.293714-14.573714-116.992-22.290286-123.428571-21.430857-137.563429-136.283429-0.859429-8.137143-6.436571-13.714286-14.134857-13.714285-8.155429 0-13.714286 5.577143-14.573714 13.293714-14.994286 116.132571-18.870857 119.990857-137.581715 136.704-7.716571 0.859429-13.275429 6.436571-13.275428 14.573714 0 8.137143 5.558857 12.854857 13.275428 14.573715 118.710857 21.851429 123.008 22.290286 137.581715 137.142857a14.153143 14.153143 0 0 0 14.573714 12.854857zM453.266286 959.451429c155.136 0 279.003429-78.445714 338.139428-210.432 7.296-15.853714 5.997714-29.568-1.700571-36.864-6.857143-6.418286-18.870857-7.277714-32.146286-2.56-34.724571 13.714286-75.428571 20.571429-122.148571 20.571428-194.56 0-318.848-121.728-318.848-311.588571 0-53.997714 10.276571-105.837714 23.570285-132.425143 7.277714-14.994286 7.277714-27.849143 0.841143-35.986286-7.698286-8.594286-21.412571-9.874286-38.125714-3.437714C171.282286 298.569143 82.998857 438.308571 82.998857 595.145143c0 208.713143 153.856 364.288 370.285714 364.288z" p-id="2521"></path></svg>